<?xml version="1.0" standalone="no"?>
<!DOCTYPE svg PUBLIC "-//W3C//DTD SVG 20010904//EN"
 "http://www.w3.org/TR/2001/REC-SVG-20010904/DTD/svg10.dtd">
<svg version="1.0" xmlns="http://www.w3.org/2000/svg"
 width="500.000000pt" height="500.000000pt" viewBox="0 0 500.000000 500.000000"
 preserveAspectRatio="xMidYMid meet">

<g transform="translate(0.000000,500.000000) scale(0.100000,-0.100000)"
fill="#000000" stroke="none">
<path d="M0 2500 l0 -2500 2500 0 2500 0 0 2500 0 2500 -2500 0 -2500 0 0
-2500z m2749 795 c94 -25 162 -65 237 -139 113 -113 164 -243 164 -421 0 -198
-80 -360 -234 -470 -134 -96 -262 -130 -450 -122 -153 6 -253 36 -360 108
-177 118 -259 276 -258 494 1 160 45 281 142 388 44 49 158 132 168 122 3 -3
-18 -30 -47 -60 -57 -60 -90 -124 -118 -225 -25 -92 -25 -321 1 -405 56 -186
183 -314 357 -360 73 -20 231 -19 300 1 88 26 164 72 229 140 125 130 174 324
135 531 -29 155 -125 293 -241 348 -157 74 -369 42 -480 -72 -48 -49 -84 -132
-84 -193 0 -23 -5 -40 -11 -40 -18 0 -4 131 19 183 38 86 127 162 225 192 57
18 239 18 306 0z"/>
</g>
</svg>
