<?xml version="1.0" standalone="no"?>
<!DOCTYPE svg PUBLIC "-//W3C//DTD SVG 20010904//EN"
 "http://www.w3.org/TR/2001/REC-SVG-20010904/DTD/svg10.dtd">
<svg version="1.0" xmlns="http://www.w3.org/2000/svg"
 width="210.000000pt" height="280.000000pt" viewBox="0 0 210.000000 280.000000"
 preserveAspectRatio="xMidYMid meet">

<g transform="translate(0.000000,280.000000) scale(0.100000,-0.100000)"
fill="#000000" stroke="none">
<path d="M0 2445 c0 -195 2 -355 4 -355 3 0 11 6 18 13 7 7 38 30 68 52 30 22
57 42 60 45 22 24 226 130 251 130 10 0 19 3 19 8 0 4 12 13 28 19 43 20 112
42 112 38 0 -2 20 4 44 14 l43 19 -19 -71 c-15 -57 -18 -91 -14 -162 3 -49 8
-100 12 -112 4 -16 1 -23 -14 -27 -26 -8 -30 -28 -22 -101 4 -33 8 -50 9 -38
0 12 10 27 20 32 16 9 18 8 14 -9 -3 -11 2 -26 10 -34 9 -10 13 -25 9 -38 -5
-21 -6 -21 -12 -2 -6 16 -8 14 -12 -11 l-4 -30 -12 29 c-7 16 -15 26 -18 23
-9 -9 31 -91 64 -128 17 -19 33 -52 37 -74 4 -22 21 -69 38 -105 31 -67 47
-153 30 -163 -6 -4 -27 -9 -48 -11 -20 -3 -45 -12 -54 -20 -30 -27 -146 -74
-298 -121 -171 -52 -332 -107 -350 -118 -10 -6 -13 -132 -13 -573 l0 -564
1050 0 1050 0 0 554 0 554 -37 33 c-49 43 -172 99 -316 144 -135 42 -199 68
-217 90 -10 12 -30 15 -87 13 -71 -3 -73 -4 -72 -28 1 -24 1 -24 7 -3 l7 22
54 -18 c79 -28 88 -53 45 -126 -14 -25 -50 -67 -80 -94 -180 -165 -415 -158
-606 18 l-53 49 23 25 c13 14 23 31 22 38 -4 24 0 54 8 67 13 19 52 24 59 7 3
-8 11 -15 18 -15 8 0 11 -8 8 -19 -6 -24 50 -64 119 -85 39 -11 46 -11 41 0
-3 8 -14 14 -25 14 -10 0 -16 5 -13 10 3 6 0 10 -8 10 -14 0 -37 40 -37 63 0
8 35 17 103 26 146 18 145 18 159 31 28 24 120 90 127 90 3 0 14 15 24 32 18
32 18 32 0 16 -19 -17 -111 -70 -150 -88 -13 -5 -23 -14 -23 -19 0 -10 -55
-23 -120 -27 -70 -5 -104 10 -125 56 -11 24 -26 41 -41 44 -13 4 -24 11 -24
17 0 5 -11 21 -24 36 -13 14 -26 41 -29 61 -5 29 -46 102 -68 122 -3 3 -11 19
-18 37 -20 49 -6 105 35 142 19 17 34 38 34 46 0 9 9 15 23 15 27 0 67 38 67
63 0 15 3 16 21 7 12 -7 18 -17 15 -27 -3 -8 -1 -13 5 -11 18 6 13 21 -14 42
-18 13 -45 20 -84 22 -72 2 -71 2 -53 14 21 14 130 13 110 -1 -12 -8 -8 -9 15
-6 17 2 24 2 16 0 -8 -3 -2 -12 18 -24 35 -21 38 -35 16 -66 -13 -19 -13 -21
3 -19 25 2 27 -36 3 -75 -23 -38 -27 -89 -9 -107 7 -7 34 -12 61 -12 l50 0
-26 20 c-14 11 -37 20 -51 20 -32 0 -32 4 -2 37 13 14 27 39 30 55 8 39 -3
118 -20 145 -8 12 -14 28 -14 35 0 7 -9 19 -19 25 -22 14 -141 43 -176 43 -31
0 -34 14 -19 80 7 30 11 69 10 86 -1 19 2 30 9 28 5 -2 21 6 35 18 28 26 70
34 81 17 4 -7 29 -10 60 -9 30 1 105 2 167 1 114 0 144 -9 134 -40 -3 -10 0
-11 16 -2 11 6 37 11 56 11 42 0 63 -25 71 -87 3 -22 12 -57 20 -76 8 -20 15
-56 15 -80 0 -61 21 -158 32 -151 5 4 7 16 4 28 -3 13 -1 38 5 57 5 19 12 89
14 156 4 101 2 132 -15 184 -10 34 -17 66 -15 69 4 7 149 -39 176 -55 7 -5 24
-10 37 -11 13 -2 36 -11 50 -21 15 -9 32 -18 37 -19 28 -5 41 -10 52 -19 32
-26 40 -31 76 -48 35 -16 108 -61 165 -103 l22 -16 0 331 0 331 -1050 0 -1050
0 0 -355z m853 -452 c7 -9 5 -13 -6 -13 -17 0 -30 27 -20 43 4 7 8 6 11 -3 3
-8 9 -21 15 -27z m-193 -193 c0 -5 -2 -10 -4 -10 -3 0 -8 5 -11 10 -3 6 -1 10
4 10 6 0 11 -4 11 -10z"/>
<path d="M1260 2132 c-58 -6 -110 -25 -110 -40 0 -12 8 -13 43 -7 66 12 166 7
190 -10 29 -20 46 -19 42 3 -2 9 -4 20 -4 24 -1 9 -92 36 -116 34 -11 0 -31
-2 -45 -4z"/>
<path d="M1194 2062 c-6 -4 -11 -15 -11 -24 0 -10 3 -15 6 -12 3 3 6 11 6 17
0 20 21 17 22 -4 4 -49 65 -68 71 -21 4 28 14 28 38 0 10 -12 13 -18 5 -13 -9
5 -12 3 -9 -6 5 -16 48 -21 68 -9 12 7 8 15 -18 38 -26 23 -42 29 -85 31 -28
1 -59 3 -67 6 -8 2 -20 1 -26 -3z"/>
<path d="M1535 2020 c-3 -5 -1 -10 4 -10 6 0 11 5 11 10 0 6 -2 10 -4 10 -3 0
-8 -4 -11 -10z"/>
<path d="M1462 1795 c0 -16 2 -22 5 -12 2 9 2 23 0 30 -3 6 -5 -1 -5 -18z"/>
<path d="M1123 1783 c9 -2 23 -2 30 0 6 3 -1 5 -18 5 -16 0 -22 -2 -12 -5z"/>
<path d="M917 1713 c-4 -3 -7 -13 -7 -21 0 -18 13 -7 16 13 2 17 1 18 -9 8z"/>
<path d="M906 1663 c-3 -3 2 -16 11 -29 18 -28 83 -35 83 -9 0 9 9 15 23 15
20 1 21 1 3 11 -19 12 -111 20 -120 12z"/>
<path d="M1123 1648 c-2 -5 12 -8 31 -8 20 0 36 -5 36 -10 0 -6 8 -5 19 2 11
7 17 16 15 20 -7 10 -94 6 -101 -4z"/>
<path d="M1058 1643 c6 -2 18 -2 25 0 6 3 1 5 -13 5 -14 0 -19 -2 -12 -5z"/>
</g>
</svg>
