<?xml version="1.0" standalone="no"?>
<!DOCTYPE svg PUBLIC "-//W3C//DTD SVG 20010904//EN"
 "http://www.w3.org/TR/2001/REC-SVG-20010904/DTD/svg10.dtd">
<svg version="1.0" xmlns="http://www.w3.org/2000/svg"
 width="500.000000pt" height="500.000000pt" viewBox="0 0 500.000000 500.000000"
 preserveAspectRatio="xMidYMid meet">

<g transform="translate(0.000000,500.000000) scale(0.100000,-0.100000)"
fill="#000000" stroke="none">
<path d="M2443 3295 c-98 -30 -187 -106 -225 -192 -23 -52 -37 -183 -19 -183
6 0 11 17 11 40 0 144 130 273 302 300 195 30 367 -59 453 -234 60 -122 77
-259 50 -409 -35 -200 -172 -355 -364 -411 -69 -20 -227 -21 -300 -1 -174 46
-301 174 -357 360 -26 84 -26 313 -1 405 28 101 61 165 118 225 29 30 50 57
47 60 -10 10 -124 -73 -168 -122 -97 -107 -141 -228 -142 -388 -1 -218 81
-376 258 -494 107 -72 207 -102 360 -108 188 -8 316 26 450 122 154 110 234
272 234 470 0 178 -51 308 -164 421 -75 74 -143 114 -237 139 -67 18 -249 18
-306 0z"/>
</g>
</svg>
