<?xml version="1.0" standalone="no"?>
<!DOCTYPE svg PUBLIC "-//W3C//DTD SVG 20010904//EN"
 "http://www.w3.org/TR/2001/REC-SVG-20010904/DTD/svg10.dtd">
<svg version="1.0" xmlns="http://www.w3.org/2000/svg"
 width="567.000000pt" height="756.000000pt" viewBox="0 0 567.000000 756.000000"
 preserveAspectRatio="xMidYMid meet">

<g transform="translate(0.000000,756.000000) scale(0.100000,-0.100000)"
fill="#000000" stroke="none">
<path d="M0 6593 l0 -967 28 27 c15 15 34 27 41 27 8 0 12 8 9 23 -4 19 0 22
21 21 14 0 34 7 45 17 10 10 23 16 28 13 4 -3 8 1 8 8 0 8 10 20 21 28 12 8
27 20 34 27 7 7 15 9 19 6 3 -4 6 -1 6 5 0 7 6 12 14 12 8 0 16 3 18 8 5 11
85 72 95 72 4 0 13 10 18 23 6 12 16 21 23 20 7 -2 12 2 12 7 0 6 11 10 25 10
16 0 25 6 25 15 0 8 9 15 19 15 10 0 22 7 25 16 5 12 2 15 -11 10 -14 -6 -15
-5 -6 5 10 10 15 9 28 -1 10 -8 15 -9 15 -2 0 6 7 9 15 6 9 -4 15 0 15 10 0
10 6 13 15 10 8 -4 15 -1 15 6 0 6 5 8 10 5 6 -3 10 -1 10 4 0 6 6 11 13 11 7
0 20 9 30 20 10 12 29 20 47 20 22 0 33 6 40 23 5 12 9 16 9 10 2 -24 51 2 51
27 0 6 4 9 9 5 5 -3 12 -1 16 5 3 5 15 10 26 10 13 0 18 4 13 11 -5 8 1 10 18
7 18 -3 35 3 58 24 18 15 39 28 46 28 7 0 18 8 23 18 6 9 11 12 11 6 0 -19 60
-4 60 16 0 10 6 17 12 17 23 -3 128 33 128 43 0 6 16 10 35 10 34 0 47 13 23
23 -7 3 6 6 30 6 23 1 42 6 42 11 0 6 10 10 23 10 12 0 40 9 62 20 24 12 47
17 63 13 16 -4 23 -2 19 4 -4 7 15 13 49 18 31 4 53 9 50 13 -4 3 8 11 26 17
23 7 35 7 40 0 5 -6 8 -1 8 10 1 17 2 18 10 4 10 -17 -2 -68 -39 -174 -12 -34
-17 -61 -12 -63 5 -2 7 -10 4 -19 -3 -8 -13 -53 -22 -99 -14 -73 -15 -105 -5
-251 7 -93 17 -202 23 -243 23 -155 25 -139 -22 -142 -34 -2 -44 -8 -59 -33
-9 -17 -17 -48 -18 -70 0 -80 9 -217 20 -272 5 -31 10 -79 10 -107 0 -32 10
-74 26 -111 14 -33 30 -74 35 -90 8 -27 38 -66 151 -198 21 -25 34 -59 52
-144 32 -145 82 -269 159 -395 26 -44 28 -56 34 -186 6 -130 5 -140 -13 -150
-24 -12 -104 -24 -170 -26 -47 -1 -56 -5 -101 -47 -27 -26 -60 -50 -74 -54
-13 -4 -49 -22 -79 -41 -30 -18 -116 -56 -190 -84 -212 -81 -215 -82 -705
-222 -60 -17 -193 -64 -295 -103 -102 -40 -219 -80 -260 -89 -119 -26 -138
-35 -160 -70 -20 -33 -20 -40 -20 -1545 l0 -1511 2835 0 2835 0 0 1493 0 1493
-62 60 c-103 100 -198 156 -446 263 -90 39 -236 93 -325 121 -525 166 -637
210 -695 277 l-33 38 -127 2 c-70 1 -140 -3 -157 -9 -24 -8 -40 -6 -82 11 -29
11 -54 17 -54 13 -9 -57 -5 -111 8 -116 24 -10 32 2 26 41 -6 33 -4 36 13 28
10 -4 28 -9 39 -10 44 -4 234 -85 279 -120 13 -10 21 -31 24 -67 3 -46 -1 -62
-31 -121 -95 -180 -205 -306 -367 -419 -159 -110 -303 -173 -467 -204 -135
-25 -398 -15 -513 20 -112 34 -175 62 -230 100 -25 17 -67 43 -94 57 -112 60
-296 217 -332 284 -17 33 -18 38 -3 48 9 7 14 18 11 26 -3 10 0 12 12 8 9 -4
16 -2 16 3 0 6 7 10 15 10 8 0 15 5 15 10 0 6 -6 10 -12 10 -9 0 -10 3 -2 8
19 13 35 72 24 92 -7 12 -6 20 1 22 5 2 11 18 11 36 1 17 5 32 11 32 5 0 4 6
-2 14 -10 11 -10 20 -1 36 7 12 9 33 6 46 -8 31 20 33 58 3 14 -11 26 -16 26
-11 0 5 -10 17 -22 25 -22 15 -21 15 17 5 22 -5 44 -14 49 -18 5 -5 18 -4 29
2 16 8 19 8 14 -4 -3 -9 7 -26 23 -41 17 -17 30 -23 32 -15 3 8 9 8 22 1 15
-8 15 -11 2 -22 -8 -7 -12 -19 -9 -27 3 -8 -2 -17 -12 -20 -14 -6 -13 -10 12
-30 15 -13 33 -23 38 -24 6 0 23 -13 38 -30 16 -16 35 -30 43 -30 8 0 14 -4
14 -8 0 -5 18 -17 40 -27 23 -10 37 -22 33 -29 -3 -6 -3 -8 2 -4 4 4 14 3 21
-3 8 -6 37 -12 65 -14 30 -2 55 -8 60 -16 5 -8 9 -11 9 -8 0 4 17 1 37 -6 21
-7 41 -11 45 -8 10 6 10 23 1 22 -5 -1 -15 -1 -23 1 -11 1 -9 4 5 10 18 8 18
9 -5 10 -14 1 -20 4 -13 7 20 7 -21 45 -40 37 -9 -3 -14 -10 -11 -15 3 -5 -3
-9 -13 -9 -11 0 -24 -5 -30 -11 -8 -8 -13 -8 -18 0 -3 6 -3 11 2 10 22 -4 23
3 2 20 l-23 19 28 0 c20 -1 24 -3 15 -9 -11 -7 -10 -9 4 -9 12 0 17 6 15 18
-3 12 -13 17 -40 17 -50 0 -51 2 -60 90 -1 11 -9 25 -17 32 -9 6 -16 16 -16
22 0 5 -9 17 -20 25 -20 16 -20 16 3 22 14 4 21 12 18 20 -6 16 14 17 86 5 26
-4 45 -4 42 1 -3 4 0 8 5 8 6 0 11 -5 11 -10 0 -7 8 -6 23 2 12 7 33 13 47 14
90 7 199 22 211 30 8 4 26 7 41 5 14 -1 40 5 56 13 16 8 32 13 36 11 3 -3 4
-2 1 2 -3 4 9 13 27 20 28 12 33 12 40 -2 12 -20 28 -19 44 3 12 15 15 15 24
2 9 -12 10 -10 5 8 -5 19 -2 22 19 22 14 0 30 8 35 18 6 9 11 14 11 10 0 -5 9
1 20 12 11 11 27 20 36 20 10 0 14 6 11 14 -7 17 11 36 35 36 10 0 17 6 15 12
-1 7 8 14 20 16 12 2 25 12 28 23 4 10 10 19 15 19 26 0 120 74 161 126 48 63
94 134 86 134 -3 0 -31 -27 -63 -60 -31 -33 -61 -60 -66 -60 -5 0 -19 -9 -30
-20 -13 -12 -29 -18 -40 -14 -12 3 -18 0 -18 -10 0 -9 -4 -16 -9 -16 -6 0 -22
-11 -37 -25 -18 -16 -34 -23 -46 -19 -10 3 -18 2 -17 -3 4 -20 -2 -27 -12 -13
-8 11 -12 12 -16 3 -2 -7 -16 -13 -29 -13 -15 0 -24 -6 -24 -15 0 -8 -4 -15
-9 -15 -5 0 -12 -10 -16 -22 -6 -20 -8 -20 -12 -5 -5 21 -23 23 -23 3 0 -22
-19 -29 -36 -15 -19 16 -34 -2 -34 -41 0 -32 -55 -68 -64 -43 -5 12 -9 13 -21
3 -8 -7 -22 -10 -30 -6 -9 3 -18 -1 -21 -9 -4 -8 -10 -12 -15 -9 -6 3 -21 -2
-36 -11 -14 -9 -28 -13 -32 -9 -9 13 -41 13 -41 1 0 -8 -3 -8 -11 0 -8 8 -22
8 -46 1 -26 -7 -38 -6 -43 2 -6 9 -13 9 -28 1 -36 -19 -92 -13 -114 12 -12 13
-18 16 -15 7 3 -11 -3 -16 -20 -18 -22 -2 -24 0 -13 13 8 9 9 15 2 15 -6 0
-14 -5 -17 -10 -4 -6 -18 3 -33 20 -15 16 -32 30 -39 30 -7 0 -14 6 -14 13 -4
38 -20 75 -35 81 -11 4 -12 10 -5 25 9 16 8 18 -10 14 -18 -5 -20 -3 -14 16 5
16 2 21 -12 21 -11 0 -28 6 -39 14 -15 11 -22 12 -33 3 -12 -9 -13 -9 -7 1 4
6 3 12 -2 12 -5 0 -18 8 -30 18 -15 13 -18 22 -11 29 16 16 1 35 -21 28 -20
-6 -33 16 -23 42 4 11 3 14 -5 9 -7 -4 -12 -3 -12 3 0 5 -16 25 -35 44 -19 19
-32 37 -28 40 6 7 -11 75 -30 115 -6 13 -10 39 -10 58 1 25 -3 34 -12 30 -9
-3 -17 10 -24 40 -11 43 -25 56 -34 32 -3 -8 -6 -6 -6 5 -1 9 -6 17 -13 17 -6
0 -8 3 -5 7 4 3 -5 26 -19 50 -14 24 -22 48 -19 53 3 6 -3 10 -15 10 -12 0
-19 4 -15 9 3 5 -4 13 -15 16 -17 5 -19 10 -9 21 9 11 8 14 -6 14 -11 0 -15 5
-11 15 3 8 1 15 -5 15 -6 0 -7 5 -3 11 3 6 1 15 -6 19 -7 5 -13 22 -12 39 0
21 -4 31 -14 31 -21 0 -16 69 7 95 22 26 34 65 19 65 -8 0 -8 6 0 21 7 11 9
27 6 36 -5 11 -2 13 9 9 11 -4 19 3 25 19 5 14 14 25 19 25 5 0 22 14 39 31
17 17 35 28 40 25 12 -7 35 18 25 28 -4 4 3 9 15 13 19 5 22 12 20 44 -1 22 2
43 8 48 5 6 36 11 69 13 56 3 74 11 75 31 0 5 -15 7 -32 6 -18 -1 -44 1 -57 6
-54 17 -79 86 -44 117 37 31 43 31 37 -1 -12 -57 56 -119 115 -106 55 12 94
81 71 125 -17 32 -6 34 37 6 85 -56 95 -79 42 -98 -16 -6 -28 -12 -25 -15 7
-7 116 17 116 26 0 12 -65 71 -78 71 -7 0 -12 4 -12 8 0 19 -108 63 -161 66
-30 2 -62 7 -71 10 -9 4 -41 1 -72 -7 -31 -8 -56 -10 -56 -5 0 5 -4 7 -9 3
-13 -7 -43 24 -35 37 3 5 14 8 24 5 11 -3 21 2 24 10 5 11 18 14 50 12 24 -2
42 -1 40 3 -8 13 189 2 250 -14 56 -15 109 -48 76 -48 -8 0 -40 7 -70 15 -61
16 -120 20 -120 7 0 -5 12 -9 28 -10 33 -1 125 -36 161 -61 14 -10 32 -16 40
-13 8 3 11 0 7 -7 -4 -6 0 -14 8 -17 9 -3 16 -14 16 -24 0 -11 4 -21 10 -25
12 -7 -9 -55 -24 -55 -6 0 -16 -11 -22 -24 -9 -20 -9 -25 6 -29 13 -3 16 1 13
18 -3 15 0 22 11 22 12 0 14 -7 9 -26 -3 -14 -9 -32 -13 -40 -9 -17 -1 -51 12
-51 6 0 8 6 5 14 -3 8 2 20 10 28 15 11 16 11 10 -5 -4 -11 -4 -24 0 -30 16
-25 11 -73 -11 -102 -51 -68 -98 -195 -98 -263 0 -53 51 -112 97 -112 7 0 16
-10 20 -22 6 -19 8 -20 12 -6 2 9 12 17 21 17 9 0 58 0 107 1 l90 1 -32 20
c-18 11 -41 22 -50 23 -10 2 -19 12 -21 23 -3 19 -56 51 -74 45 -5 -1 -8 4 -8
11 0 6 -5 4 -11 -5 -10 -18 -64 -25 -84 -10 -19 13 -11 40 19 63 69 54 97 89
60 75 -14 -5 -15 -4 -4 9 7 8 16 12 21 9 5 -3 9 2 9 10 0 9 6 13 14 10 9 -4
15 5 19 28 2 18 1 34 -3 36 -4 2 -2 23 5 47 8 24 12 45 9 47 -2 3 -5 24 -6 47
-1 27 -7 45 -16 48 -9 4 -10 8 -2 13 7 4 8 15 2 31 -5 13 -10 45 -11 71 -1 44
-31 121 -52 134 -5 3 -14 15 -21 27 -10 20 -10 21 5 8 22 -18 23 1 2 33 -17
26 -120 106 -135 106 -6 0 -10 -5 -10 -12 0 -6 -8 -4 -19 6 -13 12 -47 21 -96
27 -43 4 -82 12 -89 17 -6 6 -31 13 -56 17 -25 4 -51 12 -57 17 -9 7 -22 7
-40 0 -83 -31 -101 -24 -106 40 -1 10 -6 18 -12 18 -5 0 -2 7 9 15 13 10 19
30 22 77 4 74 6 88 19 107 5 10 4 16 -3 19 -8 2 -8 9 -2 20 5 9 16 34 24 54
11 29 12 37 2 41 -23 9 -26 46 -5 52 20 7 26 25 8 25 -6 0 -9 7 -6 15 4 8 2
17 -3 20 -13 8 -13 35 1 35 5 0 7 -4 4 -10 -12 -20 48 -9 70 13 36 35 53 47
67 47 8 0 24 7 37 16 18 13 20 18 10 25 -11 7 -11 9 2 9 8 0 24 -7 35 -15 21
-16 38 -20 30 -7 -2 4 0 14 5 22 7 12 11 13 17 2 6 -8 19 -11 38 -7 23 4 25 3
9 -4 -18 -8 -16 -11 19 -26 38 -16 65 -22 119 -24 18 -1 26 -5 21 -12 -5 -8
-1 -8 14 0 11 6 30 11 41 11 12 0 21 7 21 15 0 8 5 15 11 15 5 0 8 -4 4 -9 -3
-6 15 -9 43 -8 36 2 48 6 44 15 -4 10 15 13 86 10 49 -2 88 -7 85 -12 -3 -4 4
-5 16 -1 12 4 21 2 21 -4 0 -16 62 -13 103 4 40 16 87 20 87 7 0 -11 150 -30
156 -20 3 4 21 8 39 8 33 0 34 -1 25 -26 -9 -23 -8 -25 12 -19 21 6 22 5 6 -8
-24 -19 -23 -30 1 -17 30 16 32 13 16 -26 l-15 -36 38 7 c20 4 44 13 53 21 9
8 19 11 22 8 4 -4 14 -1 23 7 13 11 18 11 21 2 3 -9 10 -10 23 -3 23 12 101
11 118 -3 6 -5 12 -6 12 -1 0 10 20 -22 50 -85 16 -33 19 -46 10 -51 -9 -6 -7
-11 9 -19 11 -7 21 -16 21 -22 0 -6 -6 -7 -12 -3 -9 6 -9 3 1 -9 10 -12 11
-24 3 -45 -8 -22 -6 -33 7 -51 10 -13 17 -33 16 -44 -1 -12 5 -30 13 -39 8
-10 13 -18 9 -18 -3 0 11 -37 30 -82 33 -80 35 -89 38 -223 2 -77 8 -162 14
-190 6 -27 19 -88 28 -135 16 -81 17 -84 26 -50 5 19 13 43 19 53 7 14 5 24
-6 36 -10 11 -14 29 -11 47 13 85 28 141 42 156 16 18 23 161 23 525 1 242 -5
280 -69 441 -25 62 -24 97 1 99 10 1 16 -2 13 -8 -3 -5 -1 -17 4 -26 9 -16 11
-15 11 7 1 14 4 19 7 13 2 -7 18 -13 34 -13 17 0 28 -4 25 -9 -3 -5 1 -12 10
-15 8 -3 12 -2 9 4 -3 6 1 10 9 10 8 0 19 -7 24 -16 6 -12 18 -15 36 -12 15 3
29 1 32 -3 3 -5 12 -9 21 -9 9 0 28 -10 41 -22 14 -13 22 -17 18 -10 -14 24
53 14 80 -13 17 -17 36 -25 59 -25 24 0 35 -5 35 -15 0 -10 10 -15 30 -15 17
0 30 -5 30 -10 0 -7 7 -7 22 1 18 10 20 9 15 -5 -4 -9 -2 -16 3 -16 6 0 10 4
10 9 0 6 18 0 40 -11 22 -12 40 -25 40 -29 0 -4 10 -5 22 -1 16 4 19 2 13 -8
-6 -10 0 -12 31 -7 21 3 33 3 27 0 -23 -9 -14 -23 15 -23 17 0 32 -8 40 -21
10 -16 19 -19 38 -15 16 4 23 3 20 -3 -10 -15 24 -42 45 -36 10 4 19 3 19 -2
0 -5 9 -10 20 -11 43 -4 48 -6 43 -19 -3 -7 1 -13 9 -13 8 0 24 -9 36 -20 14
-13 36 -20 64 -21 24 0 37 -3 30 -6 -17 -7 -5 -23 19 -23 10 0 19 -6 19 -12 1
-13 66 -48 89 -48 7 0 11 -6 8 -14 -4 -10 4 -17 26 -22 18 -4 35 -7 40 -6 4 1
7 -7 7 -17 0 -14 5 -18 19 -14 19 5 61 -27 61 -47 0 -5 11 -10 25 -10 14 0 25
-4 25 -10 0 -5 7 -10 15 -10 8 0 15 -7 15 -15 0 -8 6 -15 14 -15 8 0 16 -7 20
-15 3 -8 12 -15 20 -15 7 0 17 -7 20 -16 3 -9 13 -14 20 -11 10 4 18 -4 25
-21 6 -18 10 -21 10 -9 1 10 5 15 11 12 7 -4 10 292 10 879 l0 886 -2835 0
-2835 0 0 -967z m2773 -200 c-7 -2 -19 -2 -25 0 -7 3 -2 5 12 5 14 0 19 -2 13
-5z m-633 -267 c0 -2 -7 -6 -15 -10 -8 -3 -15 -1 -15 4 0 6 7 10 15 10 8 0 15
-2 15 -4z m260 -676 c0 -5 -9 -6 -20 -3 -11 3 -17 9 -15 14 7 10 35 1 35 -11z
m-220 -50 c0 -5 -4 -10 -10 -10 -5 0 -10 5 -10 10 0 6 5 10 10 10 6 0 10 -4
10 -10z m-550 -36 c0 -8 -4 -12 -10 -9 -5 3 -10 10 -10 16 0 5 5 9 10 9 6 0
10 -7 10 -16z m80 -22 c0 -13 -12 -22 -22 -16 -10 6 -1 24 13 24 5 0 9 -4 9
-8z m-81 -40 c0 -15 -4 -36 -9 -47 -6 -15 -9 -6 -9 33 -1 33 3 51 9 47 6 -3
10 -18 9 -33z m108 -19 c2 -6 -5 -14 -16 -18 -18 -5 -20 -12 -15 -48 4 -27 15
-50 32 -66 22 -20 27 -33 28 -78 1 -58 -5 -68 -37 -58 -15 5 -17 10 -9 20 7 8
7 16 2 19 -14 9 -22 -20 -16 -53 4 -19 1 -38 -9 -51 l-15 -22 -15 24 c-25 38
-40 108 -41 188 0 81 14 120 44 120 10 0 22 9 25 21 7 21 35 23 42 2z m51
-416 c4 -21 -30 -24 -47 -3 -9 11 -9 15 1 19 22 9 43 2 46 -16z m450 -1177
c10 -16 10 -20 -2 -20 -7 0 -16 9 -19 20 -3 11 -2 20 2 20 3 0 12 -9 19 -20z
m52 -33 c0 -23 -2 -22 -19 10 -10 19 -9 22 4 17 8 -4 15 -15 15 -27z m151
-155 c12 -17 16 -32 10 -32 -6 0 -11 5 -11 10 0 6 -11 10 -25 10 -14 0 -25 5
-25 10 0 6 7 10 15 10 17 0 20 16 5 23 -7 4 -7 5 0 4 6 -1 20 -17 31 -35z
m164 -2 c3 -5 -3 -10 -14 -10 -12 0 -21 5 -21 10 0 6 6 10 14 10 8 0 18 -4 21
-10z m170 -149 c3 -5 2 -12 -3 -15 -5 -3 -9 1 -9 9 0 17 3 19 12 6z"/>
<path d="M2190 6269 c0 -5 5 -7 10 -4 6 3 10 8 10 11 0 2 -4 4 -10 4 -5 0 -10
-5 -10 -11z"/>
<path d="M3525 5769 c-22 -5 -80 -10 -130 -13 -70 -2 -113 -11 -190 -37 -89
-31 -100 -37 -101 -59 -1 -14 -5 -32 -8 -41 -6 -13 -1 -16 26 -14 18 2 46 8
61 14 16 6 43 11 60 11 18 0 41 6 52 13 23 16 85 30 85 19 0 -4 48 -8 108 -9
94 -2 277 -30 212 -32 -38 -2 -3 -21 38 -21 20 0 31 -4 27 -10 -3 -6 5 -10 19
-10 13 0 26 -4 28 -8 2 -5 17 -12 33 -16 28 -6 29 -5 11 8 -10 8 -15 19 -11
25 3 6 1 11 -4 11 -7 0 -7 7 1 20 11 17 10 22 -2 30 -8 5 -11 10 -6 10 24 0
-32 41 -78 56 -28 9 -57 21 -64 27 -7 5 -29 13 -50 18 -20 4 -46 10 -57 12
-11 3 -38 1 -60 -4z"/>
<path d="M3265 5588 c-38 -13 -102 -61 -88 -65 5 -2 36 12 68 31 32 20 61 33
66 31 4 -3 18 -1 31 4 21 9 20 10 -12 10 -19 -1 -48 -5 -65 -11z"/>
<path d="M3520 5576 c0 -3 18 -15 40 -27 22 -13 40 -26 40 -31 0 -12 -3 -11
-51 16 -88 49 -195 46 -275 -7 -61 -39 -113 -87 -97 -87 11 0 31 13 67 45 15
14 64 45 70 45 3 0 -1 -15 -9 -33 -11 -26 -11 -38 -1 -62 18 -42 38 -56 86
-58 36 -1 46 3 72 32 30 33 33 58 13 103 -12 30 50 2 84 -38 17 -19 37 -34 45
-34 8 0 18 -5 22 -11 5 -8 -3 -10 -25 -7 -31 5 -50 -5 -32 -16 5 -3 7 -14 4
-25 -4 -15 2 -20 29 -24 18 -2 41 -1 50 4 11 6 25 5 38 -3 18 -11 23 -10 33 2
7 8 19 15 27 15 33 0 18 35 -39 92 -65 64 -191 136 -191 109z m-110 -105 c0
-5 -9 -7 -20 -4 -11 3 -20 7 -20 9 0 2 9 4 20 4 11 0 20 -4 20 -9z"/>
<path d="M4135 5456 c-15 -11 -17 -18 -9 -26 8 -8 14 -9 18 -1 4 6 16 11 27
11 12 0 19 5 17 13 -7 18 -31 20 -53 3z"/>
<path d="M3157 5410 c6 -7 33 -15 60 -17 27 -3 44 -2 40 3 -5 5 -23 9 -40 10
-18 0 -41 4 -52 9 -16 6 -18 5 -8 -5z"/>
<path d="M3401 5356 c10 -9 79 -14 74 -5 -4 5 -22 9 -42 9 -20 0 -34 -2 -32
-4z"/>
<path d="M2601 5286 c-7 -8 -8 -17 -3 -20 6 -3 13 1 16 10 9 23 2 28 -13 10z"/>
<path d="M3996 4969 c-8 -39 -8 -54 0 -46 10 10 22 77 14 77 -4 0 -10 -14 -14
-31z"/>
<path d="M3956 4873 c-4 -32 -9 -78 -13 -103 -4 -31 -2 -42 5 -35 6 6 13 35
16 65 4 30 9 72 12 93 3 21 2 37 -4 37 -5 0 -13 -26 -16 -57z"/>
<path d="M3028 4823 c-38 -15 -54 -39 -20 -29 9 2 35 10 58 17 31 8 46 8 63 0
13 -7 21 -8 21 -2 0 14 -34 31 -62 30 -13 0 -40 -7 -60 -16z"/>
<path d="M3075 4780 c-19 -8 -19 -9 2 -9 12 -1 25 4 28 9 7 12 -2 12 -30 0z"/>
<path d="M2945 4770 c-3 -5 -2 -10 4 -10 5 0 13 5 16 10 3 6 2 10 -4 10 -5 0
-13 -4 -16 -10z"/>
<path d="M2710 4690 c-8 -5 -10 -10 -5 -10 6 0 2 -5 -9 -11 -14 -9 -20 -8 -27
2 -5 8 -9 10 -9 4 0 -20 17 -38 24 -26 4 6 10 9 14 7 4 -2 16 2 27 10 10 8 13
14 6 14 -7 0 -9 5 -6 10 8 12 4 12 -15 0z"/>
<path d="M2494 4645 c4 -10 -3 -19 -18 -25 -13 -5 -26 -15 -28 -22 -6 -18 2
-48 13 -48 5 0 8 -10 8 -22 -1 -17 -2 -19 -6 -5 -2 9 -9 17 -15 17 -5 0 -8 -7
-4 -15 3 -8 1 -27 -4 -41 -9 -22 -7 -30 13 -48 13 -12 32 -36 42 -54 11 -18
24 -32 29 -32 5 0 18 -8 29 -17 12 -10 17 -12 12 -4 -6 11 2 13 49 9 31 -3 56
-1 56 3 0 5 11 4 25 -1 32 -12 41 4 10 18 -31 14 -31 21 -2 48 14 13 43 24 77
29 l55 8 -35 9 c-19 5 -42 11 -50 15 -8 3 -26 6 -39 7 -14 1 -26 7 -28 13 -3
7 -10 10 -18 7 -7 -3 -15 -1 -18 3 -7 10 -110 9 -127 -2 -16 -10 -40 14 -40
40 0 15 8 25 23 30 l22 8 -23 4 c-27 5 -24 29 4 25 11 -2 15 1 9 5 -6 4 -10
18 -9 31 1 12 -3 22 -8 22 -6 0 -7 -7 -4 -15z"/>
<path d="M2570 4652 c0 -6 9 -12 20 -15 11 -3 20 -3 20 -1 0 2 -9 8 -20 14
-11 6 -20 7 -20 2z"/>
<path d="M2725 4650 c-3 -5 -2 -10 4 -10 5 0 13 5 16 10 3 6 2 10 -4 10 -5 0
-13 -4 -16 -10z"/>
<path d="M2535 4610 c-3 -5 1 -10 10 -10 9 0 13 5 10 10 -3 6 -8 10 -10 10 -2
0 -7 -4 -10 -10z"/>
<path d="M3905 4570 c-3 -5 -1 -10 4 -10 6 0 11 5 11 10 0 6 -2 10 -4 10 -3 0
-8 -4 -11 -10z"/>
<path d="M3189 4475 c-4 -3 -35 -8 -70 -11 -35 -2 -77 -7 -94 -11 l-30 -6 30
-7 c17 -3 60 -5 97 -4 50 1 65 -2 61 -12 -3 -9 2 -11 18 -7 19 5 21 3 17 -15
-8 -31 17 -28 38 3 9 14 24 25 34 25 18 0 35 26 22 34 -13 8 -117 18 -123 11z"/>
<path d="M2860 4451 c-39 -11 -8 -22 54 -19 57 2 80 18 27 18 -16 0 -35 2 -43
4 -7 2 -24 1 -38 -3z"/>
<path d="M3180 4389 c0 -5 5 -7 10 -4 6 3 10 8 10 11 0 2 -4 4 -10 4 -5 0 -10
-5 -10 -11z"/>
<path d="M2610 3840 c0 -5 5 -10 10 -10 6 0 10 5 10 10 0 6 -4 10 -10 10 -5 0
-10 -4 -10 -10z"/>
<path d="M3470 3819 c0 -5 5 -7 10 -4 6 3 10 8 10 11 0 2 -4 4 -10 4 -5 0 -10
-5 -10 -11z"/>
<path d="M3205 3680 c3 -5 11 -10 16 -10 6 0 7 5 4 10 -3 6 -11 10 -16 10 -6
0 -7 -4 -4 -10z"/>
<path d="M3190 3639 c0 -5 5 -7 10 -4 6 3 10 8 10 11 0 2 -4 4 -10 4 -5 0 -10
-5 -10 -11z"/>
<path d="M2670 3431 c0 -5 7 -12 16 -15 14 -5 15 -4 4 9 -14 17 -20 19 -20 6z"/>
<path d="M3865 3391 c-10 -17 15 -45 29 -31 7 7 5 15 -6 26 -11 11 -18 13 -23
5z"/>
</g>
</svg>
