<?xml version="1.0" standalone="no"?>
<!DOCTYPE svg PUBLIC "-//W3C//DTD SVG 20010904//EN"
 "http://www.w3.org/TR/2001/REC-SVG-20010904/DTD/svg10.dtd">
<svg version="1.0" xmlns="http://www.w3.org/2000/svg"
 width="200.000000pt" height="200.000000pt" viewBox="0 0 200.000000 200.000000"
 preserveAspectRatio="xMidYMid meet">

<g transform="translate(0.000000,200.000000) scale(0.100000,-0.100000)"
fill="#000000" stroke="none">
<path d="M0 1660 c0 -187 3 -340 6 -340 4 0 24 15 44 33 61 52 190 137 209
137 5 0 14 7 21 15 7 8 21 15 31 15 11 0 37 11 59 25 22 14 44 25 49 25 5 0
14 7 21 15 8 10 31 15 71 15 50 0 57 2 52 17 -4 10 -2 14 4 10 6 -4 14 -1 16
5 3 7 6 2 7 -12 1 -23 2 -23 10 -5 13 31 11 12 -5 -52 -17 -64 -19 -145 -5
-213 8 -39 6 -47 -11 -59 -15 -11 -19 -25 -19 -75 1 -56 2 -59 15 -42 8 11 16
18 17 15 28 -46 39 -97 18 -84 -5 3 -10 -1 -10 -9 0 -25 -20 -19 -21 7 -1 15
-3 17 -6 5 -5 -20 16 -62 51 -103 15 -16 29 -41 32 -55 10 -44 36 -114 55
-146 12 -20 19 -50 19 -82 l0 -51 -37 -6 c-21 -3 -45 -10 -53 -16 -55 -35
-177 -85 -315 -127 -182 -57 -283 -90 -305 -101 -12 -7 -15 -43 -18 -215 l-2
-206 1000 0 1000 0 0 194 0 194 -37 33 c-45 39 -152 90 -265 125 -140 44 -192
64 -222 86 -45 32 -152 34 -125 2 6 -7 14 -12 18 -9 14 8 71 -35 71 -54 0 -39
-83 -144 -151 -189 -85 -57 -149 -75 -252 -70 -98 4 -166 33 -258 110 -61 51
-69 67 -44 88 8 7 15 26 15 42 0 39 16 68 38 68 22 -1 52 -24 52 -41 1 -20 85
-80 103 -73 8 3 18 1 22 -5 3 -6 14 -11 22 -11 14 0 14 3 -3 18 -10 10 -27 21
-36 25 -10 3 -18 13 -18 22 0 8 -4 15 -8 15 -4 0 -8 8 -9 19 -1 16 8 19 87 23
48 3 94 9 101 14 8 5 21 9 29 10 46 3 53 5 47 10 -3 4 17 24 46 45 69 50 77
58 77 70 0 11 -55 -15 -65 -31 -3 -5 -15 -10 -26 -10 -10 0 -19 -3 -19 -7 0
-10 -59 -45 -80 -49 -75 -12 -101 -14 -137 -9 -28 4 -43 11 -43 20 0 8 -26 41
-59 72 -42 42 -63 72 -75 110 -9 28 -30 69 -45 90 -15 21 -34 56 -41 77 -10
33 -10 43 6 78 10 22 28 44 41 49 14 5 23 17 23 29 0 14 7 20 22 20 l22 0 -22
21 c-12 11 -20 25 -16 30 3 5 14 -2 25 -15 11 -14 26 -23 34 -20 15 6 37 59
28 68 -4 3 -28 6 -54 6 -26 0 -51 5 -54 10 -4 6 15 10 49 10 31 0 56 -4 56 -9
0 -5 15 -15 34 -21 39 -13 46 -25 39 -64 -4 -17 -1 -31 6 -36 9 -5 7 -16 -8
-43 -11 -19 -23 -51 -26 -69 -9 -46 10 -60 72 -56 l48 3 -32 18 c-18 9 -42 17
-54 17 -22 0 -22 1 7 31 27 28 29 36 28 97 -2 71 -30 144 -63 161 -9 5 -47 14
-86 21 -38 7 -75 14 -82 15 -7 3 -10 20 -7 52 3 26 6 60 7 75 1 16 5 28 10 28
4 0 7 6 7 14 0 20 87 61 103 48 7 -6 80 -9 175 -8 162 2 163 1 169 -21 5 -21
10 -23 39 -17 63 12 68 10 85 -26 9 -19 15 -38 13 -42 -3 -4 4 -33 15 -65 10
-32 22 -90 25 -130 5 -63 22 -134 26 -108 28 200 29 391 1 443 -13 25 -14 35
-2 28 5 -4 12 0 14 6 4 10 6 10 6 1 1 -7 19 -17 41 -23 22 -6 40 -15 40 -20 0
-6 18 -10 41 -10 24 0 52 -8 67 -19 15 -10 37 -21 49 -25 11 -4 27 -13 33 -21
7 -8 22 -15 34 -15 11 0 32 -9 46 -20 14 -11 30 -20 36 -20 6 0 28 -13 50 -30
21 -16 43 -30 47 -30 5 0 24 -12 43 -26 l34 -26 0 316 0 316 -1000 0 -1000 0
0 -340z m616 -8 c1 -7 0 -8 -3 -2 -2 5 -9 8 -14 4 -5 -3 -9 0 -9 6 0 15 23 7
26 -8z"/>
<path d="M1180 1361 c-50 -8 -90 -26 -90 -42 0 -7 10 -9 28 -4 74 20 147 13
223 -19 15 -6 16 1 10 44 -1 8 -87 30 -109 29 -9 -1 -37 -5 -62 -8z"/>
<path d="M1174 1293 c-10 -7 -13 -48 -3 -57 2 -2 14 -7 27 -10 19 -6 23 -3 28
23 5 25 9 29 20 20 8 -6 14 -20 14 -31 0 -16 6 -19 33 -16 39 4 42 24 6 51
-28 20 -107 33 -125 20z"/>
<path d="M1130 1280 c0 -5 5 -10 10 -10 6 0 10 5 10 10 0 6 -4 10 -10 10 -5 0
-10 -4 -10 -10z"/>
<path d="M906 1247 c3 -10 9 -15 12 -12 3 3 0 11 -7 18 -10 9 -11 8 -5 -6z"/>
<path d="M1392 1040 c0 -14 2 -19 5 -12 2 6 2 18 0 25 -3 6 -5 1 -5 -13z"/>
<path d="M1060 1030 c0 -12 8 -12 35 0 18 8 17 9 -7 9 -16 1 -28 -3 -28 -9z"/>
<path d="M874 962 c-17 -11 -14 -56 6 -82 14 -18 23 -21 48 -15 18 3 30 10 27
15 -3 4 2 11 11 14 28 11 4 26 -42 26 -42 0 -44 1 -38 25 7 27 5 29 -12 17z"/>
<path d="M1085 903 c17 -3 35 -9 42 -15 8 -7 19 -5 35 6 21 15 20 16 -42 15
-36 -1 -51 -4 -35 -6z"/>
<path d="M1300 627 c0 -23 4 -36 10 -32 13 8 13 35 0 55 -7 11 -10 5 -10 -23z"/>
</g>
</svg>
